<?xml version="1.0" encoding="UTF-8" standalone="no"?>
<svg
   xmlns:dc="http://purl.org/dc/elements/1.1/"
   xmlns:cc="http://creativecommons.org/ns#"
   xmlns:rdf="http://www.w3.org/1999/02/22-rdf-syntax-ns#"
   xmlns:svg="http://www.w3.org/2000/svg"
   xmlns="http://www.w3.org/2000/svg"
   xmlns:sodipodi="http://sodipodi.sourceforge.net/DTD/sodipodi-0.dtd"
   xmlns:inkscape="http://www.inkscape.org/namespaces/inkscape"
   width="210mm"
   height="297mm"
   viewBox="0 0 210 297"
   version="1.1"
   id="svg2241"
   inkscape:version="1.0 (4035a4fb49, 2020-05-01)"
   sodipodi:docname="LCO.svg">
  <defs
     id="defs2235" />
  <sodipodi:namedview
     inkscape:snap-midpoints="true"
     inkscape:snap-smooth-nodes="true"
     id="base"
     pagecolor="#ffffff"
     bordercolor="#666666"
     borderopacity="1.0"
     inkscape:pageopacity="0.0"
     inkscape:pageshadow="2"
     inkscape:zoom="0.98994949"
     inkscape:cx="431.72329"
     inkscape:cy="476.60683"
     inkscape:document-units="mm"
     inkscape:current-layer="layer1"
     inkscape:document-rotation="0"
     showgrid="false"
     inkscape:snap-bbox="true"
     inkscape:bbox-paths="true"
     inkscape:bbox-nodes="true"
     inkscape:snap-bbox-edge-midpoints="true"
     inkscape:snap-bbox-midpoints="true"
     inkscape:snap-intersection-paths="true"
     inkscape:object-paths="true"
     inkscape:snap-global="true"
     inkscape:snap-nodes="true"
     inkscape:snap-object-midpoints="true"
     inkscape:snap-center="true"
     showguides="false"
     inkscape:guide-bbox="true"
     inkscape:window-width="2560"
     inkscape:window-height="1373"
     inkscape:window-x="-9"
     inkscape:window-y="29"
     inkscape:window-maximized="1">
    <sodipodi:guide
       position="125.67709,136.9702"
       orientation="1,0"
       id="guide2828" />
    <sodipodi:guide
       position="97.7926,194.61901"
       orientation="0,-1"
       id="guide2830" />
    <sodipodi:guide
       position="106.21131,99.991962"
       orientation="0,-1"
       id="guide2834" />
    <sodipodi:guide
       position="54.617556,141.27381"
       orientation="1,0"
       id="guide2836" />
    <sodipodi:guide
       position="130.40178,222.67501"
       orientation="0,-1"
       id="guide2854" />
    <sodipodi:guide
       position="131.34672,208.67501"
       orientation="0,-1"
       id="guide2856" />
    <sodipodi:guide
       position="107.53422,85.991962"
       orientation="0,-1"
       id="guide2858" />
    <sodipodi:guide
       position="113.39285,71.991961"
       orientation="0,-1"
       id="guide2860" />
    <sodipodi:guide
       position="26.617556,139.38393"
       orientation="1,0"
       id="guide2862" />
    <sodipodi:guide
       position="40.617556,140.89584"
       orientation="1,0"
       id="guide2864" />
    <sodipodi:guide
       position="139.67709,139.76191"
       orientation="1,0"
       id="guide2866" />
    <sodipodi:guide
       position="153.67709,153.55804"
       orientation="1,0"
       id="guide2868" />
    <sodipodi:guide
       id="guide855"
       orientation="1,0"
       position="168.52977,89.799301" />
    <sodipodi:guide
       id="guide857"
       orientation="0,-1"
       position="150.94046,223.84153" />
  </sodipodi:namedview>
  <metadata
     id="metadata2238">
    <rdf:RDF>
      <cc:Work
         rdf:about="">
        <dc:format>image/svg+xml</dc:format>
        <dc:type
           rdf:resource="http://purl.org/dc/dcmitype/StillImage" />
        <dc:title />
      </cc:Work>
    </rdf:RDF>
  </metadata>
  <g
     inkscape:label="Layer 1"
     inkscape:groupmode="layer"
     id="layer1">
    <path
       sodipodi:nodetypes="ccccccccc"
       transform="scale(0.26458333)"
       d="m 262.56445,382.33203 v 304.94336 52.91211 h 52.91407 215.6582 V 687.27539 H 315.47852 V 382.33203 Z"
       style="fill:#000000;stroke:#000000;stroke-width:0;paint-order:fill markers stroke"
       id="rect2818" />
    <path
       transform="scale(0.26458333)"
       d="M 372.83203 382.54297 L 372.83203 435.45703 L 372.83203 573.9707 L 372.83203 626.88477 L 531.13672 626.88477 L 531.13672 573.9707 L 425.74609 573.9707 L 425.74609 435.45703 L 531.13672 435.45703 L 531.13672 382.54297 L 425.74609 382.54297 L 372.83203 382.54297 z "
       style="fill:#000000;stroke:#000000;stroke-width:0;paint-order:fill markers stroke"
       id="rect2822" />
    <path
       transform="scale(0.26458333)"
       d="M 156.73828 276.50391 L 156.73828 846.01562 L 209.65039 846.01562 L 584.04883 846.01562 L 608.30078 846.01562 L 608.30273 846.01562 L 608.30469 846.01562 A 28.661135 28.661135 0 0 0 608.75391 846.01172 A 28.661135 28.661135 0 0 0 609.20508 846 A 28.661135 28.661135 0 0 0 609.6543 845.98242 A 28.661135 28.661135 0 0 0 610.10352 845.95898 A 28.661135 28.661135 0 0 0 610.55273 845.92578 A 28.661135 28.661135 0 0 0 611.00195 845.88867 A 28.661135 28.661135 0 0 0 611.44922 845.8418 A 28.661135 28.661135 0 0 0 611.89648 845.78906 A 28.661135 28.661135 0 0 0 612.3418 845.72852 A 28.661135 28.661135 0 0 0 612.78711 845.66211 A 28.661135 28.661135 0 0 0 613.23242 845.58789 A 28.661135 28.661135 0 0 0 613.67383 845.50781 A 28.661135 28.661135 0 0 0 614.11523 845.41992 A 28.661135 28.661135 0 0 0 614.55664 845.32422 A 28.661135 28.661135 0 0 0 614.99414 845.22266 A 28.661135 28.661135 0 0 0 615.43164 845.11328 A 28.661135 28.661135 0 0 0 615.86719 844.99805 A 28.661135 28.661135 0 0 0 616.30078 844.87695 A 28.661135 28.661135 0 0 0 616.73047 844.74805 A 28.661135 28.661135 0 0 0 617.16016 844.61133 A 28.661135 28.661135 0 0 0 617.58789 844.46875 A 28.661135 28.661135 0 0 0 618.01172 844.32031 A 28.661135 28.661135 0 0 0 618.43359 844.16406 A 28.661135 28.661135 0 0 0 618.85352 844.00195 A 28.661135 28.661135 0 0 0 619.27148 843.83203 A 28.661135 28.661135 0 0 0 619.68555 843.65625 A 28.661135 28.661135 0 0 0 620.09766 843.47461 A 28.661135 28.661135 0 0 0 620.50586 843.28711 A 28.661135 28.661135 0 0 0 620.91211 843.0918 A 28.661135 28.661135 0 0 0 621.31445 842.89062 A 28.661135 28.661135 0 0 0 621.71484 842.68359 A 28.661135 28.661135 0 0 0 622.11133 842.46875 A 28.661135 28.661135 0 0 0 622.50391 842.25 A 28.661135 28.661135 0 0 0 622.89258 842.02344 A 28.661135 28.661135 0 0 0 623.2793 841.79102 A 28.661135 28.661135 0 0 0 623.66016 841.55273 A 28.661135 28.661135 0 0 0 624.03906 841.30859 A 28.661135 28.661135 0 0 0 624.41211 841.05859 A 28.661135 28.661135 0 0 0 624.7832 840.80273 A 28.661135 28.661135 0 0 0 625.15039 840.54102 A 28.661135 28.661135 0 0 0 625.51172 840.27344 A 28.661135 28.661135 0 0 0 625.86914 840 A 28.661135 28.661135 0 0 0 626.22266 839.7207 A 28.661135 28.661135 0 0 0 626.57227 839.4375 A 28.661135 28.661135 0 0 0 626.91602 839.14648 A 28.661135 28.661135 0 0 0 627.25586 838.85156 A 28.661135 28.661135 0 0 0 627.5918 838.55273 A 28.661135 28.661135 0 0 0 627.92188 838.24609 A 28.661135 28.661135 0 0 0 628.24805 837.93555 A 28.661135 28.661135 0 0 0 628.56836 837.61914 A 28.661135 28.661135 0 0 0 628.88477 837.29883 A 28.661135 28.661135 0 0 0 629.19531 836.97266 A 28.661135 28.661135 0 0 0 629.50195 836.64258 A 28.661135 28.661135 0 0 0 629.80078 836.30664 A 28.661135 28.661135 0 0 0 630.0957 835.9668 A 28.661135 28.661135 0 0 0 630.38672 835.62305 A 28.661135 28.661135 0 0 0 630.66992 835.27344 A 28.661135 28.661135 0 0 0 630.94922 834.91992 A 28.661135 28.661135 0 0 0 631.22266 834.5625 A 28.661135 28.661135 0 0 0 631.49023 834.19922 A 28.661135 28.661135 0 0 0 631.75195 833.83398 A 28.661135 28.661135 0 0 0 632.00781 833.46289 A 28.661135 28.661135 0 0 0 632.25781 833.08984 A 28.661135 28.661135 0 0 0 632.50195 832.71094 A 28.661135 28.661135 0 0 0 632.74023 832.32812 A 28.661135 28.661135 0 0 0 632.97266 831.94336 A 28.661135 28.661135 0 0 0 633.19727 831.55469 A 28.661135 28.661135 0 0 0 633.41797 831.16016 A 28.661135 28.661135 0 0 0 633.63281 830.76562 A 28.661135 28.661135 0 0 0 633.83984 830.36523 A 28.661135 28.661135 0 0 0 634.04102 829.96289 A 28.661135 28.661135 0 0 0 634.23633 829.55664 A 28.661135 28.661135 0 0 0 634.42383 829.14844 A 28.661135 28.661135 0 0 0 634.60547 828.73633 A 28.661135 28.661135 0 0 0 634.78125 828.32227 A 28.661135 28.661135 0 0 0 634.95117 827.9043 A 28.661135 28.661135 0 0 0 635.11328 827.48438 A 28.661135 28.661135 0 0 0 635.26953 827.0625 A 28.661135 28.661135 0 0 0 635.41797 826.63672 A 28.661135 28.661135 0 0 0 635.56055 826.21094 A 28.661135 28.661135 0 0 0 635.69531 825.78125 A 28.661135 28.661135 0 0 0 635.82422 825.34961 A 28.661135 28.661135 0 0 0 635.94727 824.91602 A 28.661135 28.661135 0 0 0 636.0625 824.48047 A 28.661135 28.661135 0 0 0 636.17188 824.04492 A 28.661135 28.661135 0 0 0 636.27344 823.60547 A 28.661135 28.661135 0 0 0 636.36719 823.16602 A 28.661135 28.661135 0 0 0 636.45508 822.72461 A 28.661135 28.661135 0 0 0 636.53711 822.28125 A 28.661135 28.661135 0 0 0 636.60938 821.83789 A 28.661135 28.661135 0 0 0 636.67773 821.39258 A 28.661135 28.661135 0 0 0 636.73633 820.94531 A 28.661135 28.661135 0 0 0 636.78906 820.49805 A 28.661135 28.661135 0 0 0 636.83594 820.05078 A 28.661135 28.661135 0 0 0 636.875 819.60352 A 28.661135 28.661135 0 0 0 636.90625 819.1543 A 28.661135 28.661135 0 0 0 636.93164 818.70508 A 28.661135 28.661135 0 0 0 636.94922 818.25391 A 28.661135 28.661135 0 0 0 636.95898 817.80469 A 28.661135 28.661135 0 0 0 636.96289 817.35352 L 636.96289 817.35156 L 636.96289 305.16602 L 636.96289 305.16406 A 28.661135 28.661135 0 0 0 636.95898 304.71289 A 28.661135 28.661135 0 0 0 636.94922 304.26367 A 28.661135 28.661135 0 0 0 636.93164 303.8125 A 28.661135 28.661135 0 0 0 636.90625 303.36328 A 28.661135 28.661135 0 0 0 636.875 302.91406 A 28.661135 28.661135 0 0 0 636.83594 302.4668 A 28.661135 28.661135 0 0 0 636.78906 302.01758 A 28.661135 28.661135 0 0 0 636.73633 301.57031 A 28.661135 28.661135 0 0 0 636.67578 301.125 A 28.661135 28.661135 0 0 0 636.60938 300.67969 A 28.661135 28.661135 0 0 0 636.53516 300.23633 A 28.661135 28.661135 0 0 0 636.45508 299.79297 A 28.661135 28.661135 0 0 0 636.36719 299.35156 A 28.661135 28.661135 0 0 0 636.27148 298.91211 A 28.661135 28.661135 0 0 0 636.16992 298.47266 A 28.661135 28.661135 0 0 0 636.0625 298.03516 A 28.661135 28.661135 0 0 0 635.94727 297.60156 A 28.661135 28.661135 0 0 0 635.82422 297.16797 A 28.661135 28.661135 0 0 0 635.69531 296.73633 A 28.661135 28.661135 0 0 0 635.55859 296.30664 A 28.661135 28.661135 0 0 0 635.41797 295.88086 A 28.661135 28.661135 0 0 0 635.26758 295.45508 A 28.661135 28.661135 0 0 0 635.11133 295.0332 A 28.661135 28.661135 0 0 0 634.94922 294.61328 A 28.661135 28.661135 0 0 0 634.78125 294.19531 A 28.661135 28.661135 0 0 0 634.60547 293.78125 A 28.661135 28.661135 0 0 0 634.42383 293.36914 A 28.661135 28.661135 0 0 0 634.23438 292.96094 A 28.661135 28.661135 0 0 0 634.03906 292.55469 A 28.661135 28.661135 0 0 0 633.83789 292.15234 A 28.661135 28.661135 0 0 0 633.63086 291.75195 A 28.661135 28.661135 0 0 0 633.41602 291.35742 A 28.661135 28.661135 0 0 0 633.19727 290.96289 A 28.661135 28.661135 0 0 0 632.9707 290.57422 A 28.661135 28.661135 0 0 0 632.73828 290.18945 A 28.661135 28.661135 0 0 0 632.5 289.80664 A 28.661135 28.661135 0 0 0 632.25586 289.42773 A 28.661135 28.661135 0 0 0 632.00586 289.05469 A 28.661135 28.661135 0 0 0 631.75 288.68359 A 28.661135 28.661135 0 0 0 631.48828 288.31836 A 28.661135 28.661135 0 0 0 631.2207 287.95508 A 28.661135 28.661135 0 0 0 630.94727 287.59766 A 28.661135 28.661135 0 0 0 630.66797 287.24414 A 28.661135 28.661135 0 0 0 630.38477 286.89453 A 28.661135 28.661135 0 0 0 630.0957 286.55078 A 28.661135 28.661135 0 0 0 629.80078 286.21094 A 28.661135 28.661135 0 0 0 629.5 285.875 A 28.661135 28.661135 0 0 0 629.19336 285.54492 A 28.661135 28.661135 0 0 0 628.88281 285.21875 A 28.661135 28.661135 0 0 0 628.56836 284.89844 A 28.661135 28.661135 0 0 0 628.24609 284.58203 A 28.661135 28.661135 0 0 0 627.91992 284.27148 A 28.661135 28.661135 0 0 0 627.58984 283.9668 A 28.661135 28.661135 0 0 0 627.25586 283.66602 A 28.661135 28.661135 0 0 0 626.91406 283.37109 A 28.661135 28.661135 0 0 0 626.57031 283.08203 A 28.661135 28.661135 0 0 0 626.2207 282.79688 A 28.661135 28.661135 0 0 0 625.86719 282.51758 A 28.661135 28.661135 0 0 0 625.50977 282.24414 A 28.661135 28.661135 0 0 0 625.14844 281.97852 A 28.661135 28.661135 0 0 0 624.78125 281.7168 A 28.661135 28.661135 0 0 0 624.41016 281.46094 A 28.661135 28.661135 0 0 0 624.03711 281.20898 A 28.661135 28.661135 0 0 0 623.6582 280.96484 A 28.661135 28.661135 0 0 0 623.27734 280.72656 A 28.661135 28.661135 0 0 0 622.89062 280.49609 A 28.661135 28.661135 0 0 0 622.50195 280.26953 A 28.661135 28.661135 0 0 0 622.10938 280.04883 A 28.661135 28.661135 0 0 0 621.71289 279.83594 A 28.661135 28.661135 0 0 0 621.3125 279.62891 A 28.661135 28.661135 0 0 0 620.91016 279.42773 A 28.661135 28.661135 0 0 0 620.50391 279.23242 A 28.661135 28.661135 0 0 0 620.0957 279.04297 A 28.661135 28.661135 0 0 0 619.68359 278.86133 A 28.661135 28.661135 0 0 0 619.26953 278.68555 A 28.661135 28.661135 0 0 0 618.85156 278.51758 A 28.661135 28.661135 0 0 0 618.43164 278.35547 A 28.661135 28.661135 0 0 0 618.00977 278.19922 A 28.661135 28.661135 0 0 0 617.58594 278.04883 A 28.661135 28.661135 0 0 0 617.1582 277.90625 A 28.661135 28.661135 0 0 0 616.72852 277.77148 A 28.661135 28.661135 0 0 0 616.29688 277.64258 A 28.661135 28.661135 0 0 0 615.86523 277.51953 A 28.661135 28.661135 0 0 0 615.42969 277.4043 A 28.661135 28.661135 0 0 0 614.99219 277.29688 A 28.661135 28.661135 0 0 0 614.55273 277.19531 A 28.661135 28.661135 0 0 0 614.11328 277.09961 A 28.661135 28.661135 0 0 0 613.67188 277.01172 A 28.661135 28.661135 0 0 0 613.22852 276.93164 A 28.661135 28.661135 0 0 0 612.78516 276.85742 A 28.661135 28.661135 0 0 0 612.33984 276.79102 A 28.661135 28.661135 0 0 0 611.89453 276.73047 A 28.661135 28.661135 0 0 0 611.44727 276.67773 A 28.661135 28.661135 0 0 0 610.99805 276.63086 A 28.661135 28.661135 0 0 0 610.55078 276.59375 A 28.661135 28.661135 0 0 0 610.10156 276.56055 A 28.661135 28.661135 0 0 0 609.65234 276.53711 A 28.661135 28.661135 0 0 0 609.20117 276.51953 A 28.661135 28.661135 0 0 0 608.75195 276.50781 A 28.661135 28.661135 0 0 0 608.30273 276.50391 L 608.29883 276.50391 L 585.82617 276.50391 L 584.04883 276.50391 L 209.65039 276.50391 L 207.87305 276.50391 L 156.73828 276.50391 z M 209.65039 329.41797 L 567.8418 329.41797 C 576.793 329.41801 584.04887 336.7794 584.04883 345.85938 L 584.04883 776.89453 C 584.04879 785.84574 576.6874 793.1016 567.60742 793.10156 L 209.65039 793.10156 L 209.65039 329.41797 z "
       style="fill:#000000;stroke:#000000;stroke-width:0;paint-order:fill markers stroke"
       id="rect2846" />
  </g>
</svg>
