<svg xmlns="http://www.w3.org/2000/svg" xmlns:xlink="http://www.w3.org/1999/xlink" width="1920.16" height="2064.84" viewBox="0 0 1920.16 2064.84">
  <defs>
    <linearGradient id="linear-gradient" x1="0.5" x2="0.5" y2="1" gradientUnits="objectBoundingBox">
      <stop offset="0" stop-color="#2c5364"/>
      <stop offset="0.505" stop-color="#203a43"/>
      <stop offset="1" stop-color="#0f2027"/>
    </linearGradient>
  </defs>
  <path id="moonlit_drip" d="M1699.47,3170.934V1157.168c-64.3-113.328-332.69-2.683-465.056-2.683-154.052,0-63.591,149.816-100.566,149.816-29.738,0,46.694-149.816-98.2-149.816-59.568,0-124.623,80.873-201.876,80.873-146.014,0-25.617,245.8-94.38,244.88-68.763.919,51.634-244.88-94.38-244.88-77.254,0-142.309-80.873-201.876-80.873-144.9,0-68.463,149.816-98.2,149.816-36.975,0,53.486-149.816-100.566-149.816-132.367,0-400.753-110.645-465.056,2.683V3170.934Z" transform="translate(220.69 -1106.094)" fill="url(#linear-gradient)"/>
</svg>
